<?xml version="1.0" standalone="no"?>
<!DOCTYPE svg PUBLIC "-//W3C//DTD SVG 1.1//EN" "http://www.w3.org/Graphics/SVG/1.1/DTD/svg11.dtd" >
<svg>
<metadata>
Created by FontForge 20120731 at Sat Dec 16 21:10:52 2017
 By www-data
(c) 2004 by ck! [freakyfonts]. All rights reserved.  http://www.freakyfonts.de
</metadata>
<defs>
<font id="Emulogic" horiz-adv-x="960" >
  <font-face 
    font-family="Emulogic"
    font-weight="400"
    font-stretch="normal"
    units-per-em="960"
    panose-1="0 0 0 0 0 0 0 0 0 0"
    ascent="768"
    descent="-192"
    x-height="840"
    cap-height="840"
    bbox="0 -120 960 1080"
    underline-thickness="60"
    underline-position="-60"
    unicode-range="U+0020-00FC"
  />
<missing-glyph 
 />
    <glyph glyph-name=".notdef" 
 />
    <glyph glyph-name="B" unicode="B" 
d="M840 840v-120h120v-240h-120v-120h120v-240h-120v-120h-720v840h720zM360 480h360v240h-360v-240zM360 120h360v240h-360v-240z" />
    <glyph glyph-name="C" unicode="C" 
d="M240 120v120h-120v360h120v120h120v120h480v-120h120v-120h-240v120h-240v-120h-120v-360h120v-120h240v120h240v-120h-120v-120h-480v120h-120z" />
    <glyph glyph-name="D" unicode="D" 
d="M720 840v-120h120v-120h120v-360h-120v-120h-120v-120h-600v840h600zM360 120h240v120h120v360h-120v120h-240v-600z" />
    <glyph glyph-name="E" unicode="E" 
d="M960 840v-120h-600v-240h480v-120h-480v-240h600v-120h-840v840h840z" />
    <glyph glyph-name="F" unicode="F" 
d="M960 840v-120h-600v-240h480v-120h-480v-360h-240v840h840z" />
    <glyph glyph-name="G" unicode="G" 
d="M240 120v120h-120v360h120v120h120v120h600v-120h-480v-120h-120v-360h120v-120h240v240h-120v120h360v-480h-600v120h-120z" />
    <glyph glyph-name="H" unicode="H" 
d="M360 840v-360h360v360h240v-840h-240v360h-360v-360h-240v840h240z" />
    <glyph glyph-name="I" unicode="I" 
d="M480 120v600h-240v120h720v-120h-240v-600h240v-120h-720v120h240z" />
    <glyph glyph-name="J" unicode="J" 
d="M120 120v120h240v-120h360v720h240v-720h-120v-120h-600v120h-120z" />
    <glyph glyph-name="K" unicode="K" 
d="M360 840v-360h120v120h120v120h120v120h240v-120h-120v-120h-120v-120h-120v-120h120v-120h120v-120h120v-120h-360v120h-120v120h-120v-240h-240v840h240z" />
    <glyph glyph-name="L" unicode="L" 
d="M360 840v-720h600v-120h-840v840h240z" />
    <glyph glyph-name="M" unicode="M" 
d="M360 840v-120h120v-120h120v120h120v120h240v-840h-240v360h-120v-120h-120v120h-120v-360h-240v840h240z" />
    <glyph glyph-name="N" unicode="N" 
d="M360 840v-120h120v-120h120v-120h120v360h240v-840h-240v120h-120v120h-120v120h-120v-360h-240v840h240z" />
    <glyph glyph-name="O" unicode="O" 
d="M120 120v600h120v120h600v-120h120v-600h-120v-120h-600v120h-120zM360 120h360v600h-360v-600z" />
    <glyph glyph-name="P" unicode="P" 
d="M840 840v-120h120v-360h-120v-120h-480v-240h-240v840h720zM360 360h360v360h-360v-360z" />
    <glyph glyph-name="Q" unicode="Q" 
d="M720 120v-120h-480v120h-120v600h120v120h600v-120h120v-480h-120v-120h-120zM360 120h240v120h-120v120h240v360h-360v-600zM960 120v-120h-120v120h120z" />
    <glyph glyph-name="R" unicode="R" 
d="M840 840v-120h120v-360h-240v-120h120v-120h120v-120h-360v120h-120v120h-120v-240h-240v840h720zM360 360h240v120h120v240h-360v-360z" />
    <glyph glyph-name="S" unicode="S" 
d="M120 120v120h240v-120h360v240h-480v120h-120v240h120v120h480v-120h120v-120h-240v120h-240v-240h480v-120h120v-240h-120v-120h-600v120h-120z" />
    <glyph glyph-name="T" unicode="T" 
d="M240 720v120h720v-120h-240v-720h-240v720h-240z" />
    <glyph glyph-name="U" unicode="U" 
d="M120 120v720h240v-720h360v720h240v-720h-120v-120h-600v120h-120z" />
    <glyph glyph-name="V" unicode="V" 
d="M360 120v120h-120v120h-120v480h240v-360h120v-120h120v120h120v360h240v-480h-120v-120h-120v-120h-120v-120h-120v120h-120z" />
    <glyph glyph-name="W" unicode="W" 
d="M360 840v-360h120v120h120v-120h120v360h240v-840h-240v120h-120v120h-120v-120h-120v-120h-240v840h240z" />
    <glyph glyph-name="X" unicode="X" 
d="M240 240v120h120v120h-120v120h-120v240h240v-120h120v-120h120v120h120v120h240v-240h-120v-120h-120v-120h120v-120h120v-240h-240v120h-120v120h-120v-120h-120v-120h-240v240h120z" />
    <glyph glyph-name="Y" unicode="Y" 
d="M360 360v120h-120v360h240v-360h240v360h240v-360h-120v-120h-120v-360h-240v360h-120z" />
    <glyph glyph-name="Z" unicode="Z" 
d="M240 240v120h120v120h120v120h120v120h-480v120h840v-240h-120v-120h-120v-120h-120v-120h-120v-120h480v-120h-840v240h120z" />
    <glyph glyph-name="zero" unicode="0" 
d="M480 120h240v-120h-360v120h-120v120h-120v360h120v120h120v-480h120v-120zM720 120v480h-120v120h-240v120h360v-120h120v-120h120v-360h-120v-120h-120z" />
    <glyph glyph-name="one" unicode="1" 
d="M480 120v480h-120v120h120v120h240v-720h240v-120h-720v120h240z" />
    <glyph glyph-name="two" unicode="2" 
d="M240 240v120h120v120h240v120h120v120h-360v-120h-240v120h120v120h600v-120h120v-240h-120v-120h-120v-120h-240v-120h480v-120h-840v240h120z" />
    <glyph glyph-name="three" unicode="3" 
d="M120 120v120h240v-120h360v240h-360v120h120v120h120v120h-360v120h720v-120h-120v-120h-120v-120h120v-120h120v-240h-120v-120h-600v120h-120z" />
    <glyph glyph-name="four" unicode="4" 
d="M120 240v240h120v120h120v120h120v120h360v-480h120v-120h-120v-240h-240v240h-480zM360 360h240v240h-120v-120h-120v-120z" />
    <glyph glyph-name="five" unicode="5" 
d="M120 120v120h240v-120h360v360h-600v360h720v-120h-480v-120h480v-120h120v-360h-120v-120h-600v120h-120z" />
    <glyph glyph-name="six" unicode="6" 
d="M120 120v480h120v120h120v120h480v-120h-360v-120h-120v-120h480v-120h120v-240h-120v-120h-600v120h-120zM360 120h360v240h-360v-240z" />
    <glyph glyph-name="seven" unicode="7" 
d="M480 360v120h120v120h120v120h-360v-120h-240v240h840v-240h-120v-120h-120v-120h-120v-360h-240v360h120z" />
    <glyph glyph-name="eight" unicode="8" 
d="M720 120v120h-240v120h-240v120h-120v240h120v120h480v-120h120v-240h-120v240h-360v-120h120v-120h240v-120h240v-240h-120v-120h-600v120h480zM240 120h-120v240h120v-240z" />
    <glyph glyph-name="nine" unicode="9" 
d="M600 120v120h120v120h-480v120h-120v240h120v120h600v-120h120v-480h-120v-120h-120v-120h-480v120h360zM360 480h360v240h-360v-240z" />
    <glyph glyph-name="bracketleft" unicode="[" 
d="M840 840v-120h-240v-600h240v-120h-480v840h480z" />
    <glyph glyph-name="bracketright" unicode="]" 
d="M480 120v600h-240v120h480v-840h-480v120h240z" />
    <glyph glyph-name="question" unicode="?" 
d="M600 360v120h120v120h-360v-120h-240v240h120v120h600v-120h120v-240h-120v-120h-120v-120h-360v120h240zM720 120v-120h-360v120h360z" />
    <glyph glyph-name="greater" unicode="&#x3e;" 
d="M360 120v120h120v120h120v120h-120v120h-120v120h-120v120h240v-120h120v-120h120v-120h120v-120h-120v-120h-120v-120h-120v-120h-240v120h120z" />
    <glyph glyph-name="equal" unicode="=" 
d="M840 360v-120h-600v120h600zM840 600v-120h-600v120h600z" />
    <glyph glyph-name="less" unicode="&#x3c;" 
d="M480 120v120h-120v120h-120v120h120v120h120v120h120v120h240v-120h-120v-120h-120v-120h-120v-120h120v-120h120v-120h120v-120h-240v120h-120z" />
    <glyph glyph-name="semicolon" unicode=";" 
d="M360 120v240h240v-240h-120v-120h-240v120h120zM600 720v-240h-240v240h240z" />
    <glyph glyph-name="colon" unicode=":" 
d="M600 360v-240h-240v240h240zM600 720v-240h-240v240h240z" />
    <glyph glyph-name="period" unicode="." 
d="M600 240v-240h-240v240h240z" />
    <glyph glyph-name="hyphen" unicode="-" 
d="M840 480v-120h-600v120h600z" />
    <glyph glyph-name="comma" unicode="," 
d="M360 120v240h240v-240h-120v-120h-240v120h120z" />
    <glyph glyph-name="plus" unicode="+" 
d="M240 360v120h240v240h120v-240h240v-120h-240v-240h-120v240h-240z" />
    <glyph glyph-name="parenright" unicode=")" 
d="M480 120v120h120v360h-120v120h-120v120h240v-120h120v-120h120v-360h-120v-120h-120v-120h-240v120h120z" />
    <glyph glyph-name="parenleft" unicode="(" 
d="M360 120v120h-120v360h120v120h120v120h240v-120h-120v-120h-120v-360h120v-120h120v-120h-240v120h-120z" />
    <glyph glyph-name="exclam" unicode="!" 
d="M720 840v-360h-120v-240h-240v600h360zM600 120v-120h-240v120h240z" />
    <glyph glyph-name="numbersign" unicode="#" 
d="M120 240v120h120v120h-120v120h120v240h240v-240h120v240h240v-240h120v-120h-120v-120h120v-120h-120v-240h-240v240h-120v-240h-240v240h-120zM480 360h120v120h-120v-120z" />
    <glyph glyph-name="dollar" unicode="$" 
d="M240 120v120h240v120h-240v120h-120v120h120v120h240v120h120v-120h240v-120h-240v-120h240v-120h120v-120h-120v-120h-240v-120h-120v120h-240zM360 480h120v120h-120v-120zM600 240h120v120h-120v-120z" />
    <glyph glyph-name="quotedbl" unicode="&#x22;" 
d="M480 840v-240h-120v-120h-120v360h240zM840 840v-240h-120v-120h-120v360h240z" />
    <glyph glyph-name="percent" unicode="%" 
d="M840 120v120h-120v120h120v-120h120v-120h-120zM360 600v120h-120v120h120v-120h120v-120h-120zM600 120v120h120v-120h120v-120h-120v120h-120zM120 600v120h120v-120h120v-120h-120v120h-120zM240 120v120h120v-120h-120zM360 240v120h120v-120h-120zM840 720v120h120
v-120h-120zM240 120v-120h-120v120h120zM600 480v120h120v-120h-120zM480 360v120h120v-120h-120zM720 600v120h120v-120h-120z" />
    <glyph glyph-name="slash" unicode="/" 
d="M240 120v-120h-120v120h120zM840 720v120h120v-120h-120zM720 600v120h120v-120h-120zM600 480v120h120v-120h-120zM480 360v120h120v-120h-120zM360 240v120h120v-120h-120zM240 120v120h120v-120h-120z" />
    <glyph glyph-name="copyright" unicode="&#xa9;" 
d="M120 120v120h-120v480h120v-480h120v-120h480v-120h-480v120h-120zM840 840v-120h120v-480h-120v480h-120v120h120zM240 840v120h480v-120h-480zM240 360v240h120v-240h240v-120h-240v120h-120zM360 600v120h240v-120h-240zM120 720v120h120v-120h-120zM720 120v120h120
v-120h-120z" />
    <glyph glyph-name="quotesingle" unicode="'" 
d="M360 480v120h-120v240h240v-360h-120zM360 480v-120h-120v120h120z" />
    <glyph glyph-name="ampersand" unicode="&#x26;" 
d="M240 120h360v120h-120v120h-240v360h120v-120h120v-120h120v-120h120v-120h120v-120h-120v-120h-480v120h-120v240h120v-240zM600 480v240h-240v120h240v-120h120v-240h-120zM840 240v120h120v-120h-120zM960 120v-120h-120v120h120z" />
    <glyph glyph-name="asterisk" unicode="*" 
d="M480 360v120h-120v120h-120v120h120v-120h120v-120h120v-120h-120zM720 360v-120h120v-120h-120v120h-120v120h120zM360 240v-120h-120v120h120zM600 480v120h120v-120h-120zM720 600v120h120v-120h-120zM360 240v120h120v-120h-120z" />
    <glyph glyph-name="A" unicode="A" 
d="M240 600v120h120v120h360v-120h120v-120h120v-600h-240v240h-360v-240h-240v600h120zM360 360h360v240h-120v120h-120v-120h-120v-240z" />
    <glyph glyph-name="space" unicode=" " 
 />
    <glyph glyph-name="backslash" unicode="\" 
d="M960 120v-120h-120v120h-120v120h-120v120h-120v120h-120v120h-120v120h-120v120h120v-120h120v-120h120v-120h120v-120h120v-120h120v-120h120z" />
    <glyph glyph-name="underscore" unicode="_" 
d="M960 0v-120h-840v120h840z" />
    <glyph glyph-name="a" unicode="a" 
d="M240 600v120h120v120h360v-120h120v-120h120v-600h-240v240h-360v-240h-240v600h120zM360 360h360v240h-120v120h-120v-120h-120v-240z" />
    <glyph glyph-name="b" unicode="b" 
d="M840 840v-120h120v-240h-120v-120h120v-240h-120v-120h-720v840h720zM360 480h360v240h-360v-240zM360 120h360v240h-360v-240z" />
    <glyph glyph-name="c" unicode="c" 
d="M240 120v120h-120v360h120v120h120v120h480v-120h120v-120h-240v120h-240v-120h-120v-360h120v-120h240v120h240v-120h-120v-120h-480v120h-120z" />
    <glyph glyph-name="d" unicode="d" 
d="M720 840v-120h120v-120h120v-360h-120v-120h-120v-120h-600v840h600zM360 120h240v120h120v360h-120v120h-240v-600z" />
    <glyph glyph-name="e" unicode="e" 
d="M960 840v-120h-600v-240h480v-120h-480v-240h600v-120h-840v840h840z" />
    <glyph glyph-name="f" unicode="f" 
d="M960 840v-120h-600v-240h480v-120h-480v-360h-240v840h840z" />
    <glyph glyph-name="g" unicode="g" 
d="M240 120v120h-120v360h120v120h120v120h600v-120h-480v-120h-120v-360h120v-120h240v240h-120v120h360v-480h-600v120h-120z" />
    <glyph glyph-name="h" unicode="h" 
d="M360 840v-360h360v360h240v-840h-240v360h-360v-360h-240v840h240z" />
    <glyph glyph-name="i" unicode="i" 
d="M480 120v600h-240v120h720v-120h-240v-600h240v-120h-720v120h240z" />
    <glyph glyph-name="j" unicode="j" 
d="M120 120v120h240v-120h360v720h240v-720h-120v-120h-600v120h-120z" />
    <glyph glyph-name="k" unicode="k" 
d="M360 840v-360h120v120h120v120h120v120h240v-120h-120v-120h-120v-120h-120v-120h120v-120h120v-120h120v-120h-360v120h-120v120h-120v-240h-240v840h240z" />
    <glyph glyph-name="l" unicode="l" 
d="M360 840v-720h600v-120h-840v840h240z" />
    <glyph glyph-name="m" unicode="m" 
d="M360 840v-120h120v-120h120v120h120v120h240v-840h-240v360h-120v-120h-120v120h-120v-360h-240v840h240z" />
    <glyph glyph-name="n" unicode="n" 
d="M360 840v-120h120v-120h120v-120h120v360h240v-840h-240v120h-120v120h-120v120h-120v-360h-240v840h240z" />
    <glyph glyph-name="o" unicode="o" 
d="M120 120v600h120v120h600v-120h120v-600h-120v-120h-600v120h-120zM360 120h360v600h-360v-600z" />
    <glyph glyph-name="p" unicode="p" 
d="M840 840v-120h120v-360h-120v-120h-480v-240h-240v840h720zM360 360h360v360h-360v-360z" />
    <glyph glyph-name="q" unicode="q" 
d="M720 120v-120h-480v120h-120v600h120v120h600v-120h120v-480h-120v-120h-120zM360 120h240v120h-120v120h240v360h-360v-600zM960 120v-120h-120v120h120z" />
    <glyph glyph-name="r" unicode="r" 
d="M840 840v-120h120v-360h-240v-120h120v-120h120v-120h-360v120h-120v120h-120v-240h-240v840h720zM360 360h240v120h120v240h-360v-360z" />
    <glyph glyph-name="s" unicode="s" 
d="M120 120v120h240v-120h360v240h-480v120h-120v240h120v120h480v-120h120v-120h-240v120h-240v-240h480v-120h120v-240h-120v-120h-600v120h-120z" />
    <glyph glyph-name="t" unicode="t" 
d="M240 720v120h720v-120h-240v-720h-240v720h-240z" />
    <glyph glyph-name="u" unicode="u" 
d="M120 120v720h240v-720h360v720h240v-720h-120v-120h-600v120h-120z" />
    <glyph glyph-name="v" unicode="v" 
d="M360 120v120h-120v120h-120v480h240v-360h120v-120h120v120h120v360h240v-480h-120v-120h-120v-120h-120v-120h-120v120h-120z" />
    <glyph glyph-name="w" unicode="w" 
d="M360 840v-360h120v120h120v-120h120v360h240v-840h-240v120h-120v120h-120v-120h-120v-120h-240v840h240z" />
    <glyph glyph-name="x" unicode="x" 
d="M240 240v120h120v120h-120v120h-120v240h240v-120h120v-120h120v120h120v120h240v-240h-120v-120h-120v-120h120v-120h120v-240h-240v120h-120v120h-120v-120h-120v-120h-240v240h120z" />
    <glyph glyph-name="y" unicode="y" 
d="M360 360v120h-120v360h240v-360h240v360h240v-360h-120v-120h-120v-360h-240v360h-120z" />
    <glyph glyph-name="z" unicode="z" 
d="M240 240v120h120v120h120v120h120v120h-480v120h840v-240h-120v-120h-120v-120h-120v-120h-120v-120h480v-120h-840v240h120z" />
    <glyph glyph-name="brokenbar" unicode="&#xa6;" 
d="M600 360v-360h-240v360h240zM600 840v-360h-240v360h240z" />
    <glyph glyph-name="asciicircum" unicode="^" 
d="M480 660v120v0h120v-120h-120zM720 660v-120h120v-120h-120v120h-120v120h120zM360 540v-120h-120v120h120zM480 540v120h-120v-120h120z" />
    <glyph glyph-name="grave" unicode="`" 
d="M480 660v120v0h120v-120h-120zM720 660v-120h120v-120h-120v120h-120v120h120z" />
    <glyph glyph-name="bar" unicode="|" 
d="M600 840v-840h-240v840h240z" />
    <glyph glyph-name="divide" unicode="&#xf7;" 
d="M240 360v120h600v-120h-600zM600 600h-120v120h120v-120zM480 120v120h120v-120h-120z" />
    <glyph glyph-name="at" unicode="@" 
d="M600 600h120v120h-240v-120h-120v-360h120v-120h240v120h240v-120h-120v-120h-480v120h-120v120h-120v360h120v120h120v120h480v-120h120v-360h-360v240z" />
    <glyph glyph-name="braceleft" unicode="{" 
d="M240 480h120v360h480v-120h-240v-600h240v-120h-480v360h-120v120z" />
    <glyph glyph-name="braceright" unicode="}" 
d="M480 120v600h-240v120h480v-360h120v-120h-120v-360h-480v120h240z" />
    <glyph glyph-name="macron" unicode="&#xaf;" 
d="M424 314v577h84v-577h-84zM362 891h45q0 -101 -1.5 -166.5t-7 -110.5t-15 -75t-24.5 -60q-16 -30 -44 -58t-62.5 -51t-72.5 -38t-75 -18v88q56 9 105 41t94 98q22 33 34 84t17.5 103.5t6.5 97t0 65.5zM570 891q-1 -21 0 -65.5t6.5 -97t17.5 -103.5t34 -84q45 -66 94 -98
t105 -41v-88q-37 3 -75.5 18t-73 38t-62.5 51t-43 58t-24.5 60t-15 75t-7 110.5t-1.5 166.5h45zM787 1v260h39v-260h-39zM410 261v-39h-55v-221h-39v221h-54v39h148zM640 210v-209h-39v221q0 20 9 29.5t30 9.5h42q12 0 24 -4.5t22.5 -14t17 -24t6.5 -33.5q0 -20 -5 -32.5
t-11.5 -20.5t-14 -13t-13.5 -8q-7 -5 -6.5 -9t3.5 -10l61 -91h-46l-60 90q-8 14 -5.5 26t11.5 17q3 2 11 5t16 8.5t14 14t6 21.5q0 24 -12 31.5t-23 7.5h-26q-12 0 -12 -12zM580 1h-40l-18 65h-78l-19 -65h-40l66 235q5 18 14.5 21.5t17.5 3.5t17 -3.5t14 -21.5zM511 104
l-28 99l-29 -99h57zM290 1h-41l-18 65h-78l-18 -65h-40l66 235q5 18 14 21.5t17 3.5t17.5 -3.5t14.5 -21.5zM221 104l-29 99l-28 -99h57zM864 294q2 -2 2 -8q0 -2 -2 -8q-2 -3 -6 -6q-4 -2 -8 -2q-2 0 -8 2l-6 6q-2 6 -2 8q0 4 2 8q3 5 6 6q2 2 8 2t8 -2q4 -2 6 -6zM862 279
q2 4 2 7t-2 7q-2 3 -5 5q-4 2 -7 2t-7 -2q-3 -2 -5 -5q-2 -4 -2 -7t2 -7l5 -5q2 -1 7 -1t7 1q2 2 3 2.5t2 2.5zM858 276h-4l-2 5l-1 2q-2 2 -4 2v-9h-3v20h10q2 -2 2 -5q0 -2 -1 -3q0 -2 -3 -3q1 0 3 -3zM849 287q3 0 3 1q1 1 1 3v1q0 1 -1 1q-1 1 -3 1h-2v-7h2z" />
    <glyph glyph-name="degree" unicode="&#xb0;" 
d="M424 1v577h84v-577h-84zM362 578h45q0 -101 -1.5 -166.5t-7 -110.5t-15 -75t-24.5 -60q-16 -30 -44 -58t-62.5 -51t-72.5 -38t-75 -18v88q56 9 105 41t94 98q22 33 34 84t17.5 103.5t6.5 97t0 65.5zM570 578q-1 -21 0 -65.5t6.5 -97t17.5 -103.5t34 -84q45 -66 94 -98
t105 -41v-88q-37 3 -75.5 18t-73 38t-62.5 51t-43 58t-24.5 60t-15 75t-7 110.5t-1.5 166.5h45v0z" />
    <glyph glyph-name="plusminus" unicode="&#xb1;" 
d="M787 1v260h39v-260h-39zM410 261v-39h-55v-221h-39v221h-54v39h148zM640 210v-209h-39v221q0 20 9 29.5t30 9.5h42q12 0 24 -4.5t22.5 -14t17 -24t6.5 -33.5q0 -20 -5 -32.5t-11.5 -20.5t-14 -13t-13.5 -8q-7 -5 -6.5 -9t3.5 -10l61 -91h-46l-60 90q-8 14 -5.5 26
t11.5 17q3 2 11 5t16 8.5t14 14t6 21.5q0 24 -12 31.5t-23 7.5h-26q-12 0 -12 -12zM580 1h-40l-18 65h-78l-19 -65h-40l66 235q5 18 14.5 21.5t17.5 3.5t17 -3.5t14 -21.5zM511 104l-28 99l-29 -99h57zM290 1h-41l-18 65h-78l-18 -65h-40l66 235q5 18 14 21.5t17 3.5
t17.5 -3.5t14.5 -21.5zM221 104l-29 99l-28 -99h57zM864 294q2 -2 2 -8q0 -2 -2 -8q-2 -3 -6 -6q-4 -2 -8 -2q-2 0 -8 2l-6 6q-2 6 -2 8q0 4 2 8q3 5 6 6q2 2 8 2t8 -2q4 -2 6 -6zM862 279q2 4 2 7t-2 7q-2 3 -5 5q-4 2 -7 2t-7 -2q-3 -2 -5 -5q-2 -4 -2 -7t2 -7l5 -5
q2 -1 7 -1t7 1q2 2 3 2.5t2 2.5zM858 276h-4l-2 5l-1 2q-2 2 -4 2v-9h-3v20h10q2 -2 2 -5q0 -2 -1 -3q0 -2 -3 -3q1 0 3 -3zM849 287q3 0 3 1q1 1 1 3v1q0 1 -1 1q-1 1 -3 1h-2v-7h2z" />
    <glyph glyph-name="periodcentered" unicode="&#xb7;" 
d="M333 90h118v-41h-125q-14 0 -24 10t-10 24v59h133v-41h-92v-11zM244 213q0 32 22.5 54.5t54.5 22.5h130v-41h-126q-17 0 -28.5 -12t-11.5 -29v-125q0 -17 11.5 -28.5t28.5 -11.5h126v-42h-130q-32 0 -54.5 23t-22.5 55v134zM292 209q0 14 10 23.5t24 9.5h125v-41h-118
v-11h92v-40h-133v59zM557 201v-110h34v10h-24v41h65v-93h-83q-14 0 -23.5 10t-9.5 24v125q0 14 9.5 24t23.5 10h131v-41h-123zM960 1h-156v42h98l-68 206q-2 5 -6 8t-9 3q-12 0 -17 -11l-80 -248h-177q-32 0 -54 23t-22 55v134q0 32 22 54.5t54 22.5h136v-41h-132
q-17 0 -28.5 -12t-11.5 -29v-125q0 -17 11.5 -28.5t28.5 -11.5h90v106h-71v41h113v-180l78 246q7 17 23 29t37 12q20 0 36.5 -12t21.5 -31zM819 136l-44 -135h-45l80 246q2 5 9 5t9 -5l64 -198h-87v41h29zM908 279h-8v3h17v-3h-7v-18h-2v18zM922 261h-2v21h4l6 -17l5 17h4
v-21h-2v18l-6 -18h-3l-6 18v-18zM129 190q19 0 36.5 -7.5t30.5 -20.5t20.5 -30.5t7.5 -36.5q0 -20 -7.5 -37t-20.5 -29.5t-30.5 -20t-36.5 -7.5h-128v42h128q22 -1 37.5 14t15.5 38q0 22 -15.5 38t-37.5 16h-33q-20 0 -33.5 13.5t-13.5 32.5q0 20 13.5 33.5t33.5 13.5h124
v-41h-130v-11h39zM95 101q-20 0 -37.5 7.5t-30 20t-20 29.5t-7.5 37q0 40 27.5 67.5t67.5 27.5h125v-41h-125q-22 0 -37.5 -15.5t-15.5 -38.5q0 -22 15.5 -37.5t37.5 -15.5h33q19 0 33 -13.5t14 -32.5q0 -20 -14 -33.5t-33 -13.5h-127v42h132v10h-38z" />
    <glyph glyph-name="uni00B9" unicode="&#xb9;" 
d="M932 336l-67 -241l-386 -95l-383 97l-75 239h911zM479 259l358 62h-706zM364 144l8 23l7 -25zM723 149q-15 0 -25 9.5t-10 23.5q0 15 10 25t25 10q13 0 22.5 -10t9.5 -25q0 -14 -9.5 -23.5t-22.5 -9.5zM501 67v132h-39v-132h39zM225 204v-80l37 -10v85l43 -7v37l-122 20
v-37zM526 204l-2 -37l42 7v-92l42 10v92l33 3v37zM399 212l-49 7l-43 -114l38 -10l5 19l37 -7l7 -25l40 -7zM720 251q-28 0 -48.5 -19.5t-20.5 -49.5q0 -29 20.5 -48.5t48.5 -19.5q29 0 49.5 19.5t20.5 48.5q0 30 -20.5 49.5t-49.5 19.5zM479 229l418 77l-52 -187l-366 -87
l-363 87l-55 187zM46 321l60 -209l373 -95l376 93l57 211l-433 -77z" />
    <glyph glyph-name="uni00B3" unicode="&#xb3;" 
d="M674 182q26 0 47.5 -11.5t32.5 -31.5v38h80l5 -20l7 18h80v-30q-7 -1 -7 -6q2 -13 4.5 -30t5.5 -32t5.5 -26t4.5 -12v-32h-81v33h-47v-33h-72v22q-12 -11 -29 -18t-36 -7q-23 0 -42.5 10t-32.5 26v-31l-13 -2q-7 -1 -13.5 -1.5t-12.5 -0.5q-49 0 -81 22t-35 55
q-18 -14 -32.5 -20t-25.5 -12q0 -8 7 -8v-35h-270q-54 0 -88 23t-34 62q1 17 6.5 33t16 28.5t26.5 20t39 7.5q17 0 30.5 -5t23.5 -12.5t16 -15.5t9 -14l-45 -47l-29 23l5 12q0 5 -8 5q-5 0 -12.5 -4.5t-7.5 -23.5q0 -12 4.5 -19.5t10.5 -12t12 -6t10 -1.5q3 0 7 2q8 4 9 12
h34v-28l3 3l48 128h57l52 -137q-2 12 -1 29.5t1.5 34t-1 28.5t-8.5 12v35h90q6 0 14 -2t16.5 -6t15.5 -11.5t11 -17.5q11 14 29 26.5t46 12.5q29 0 44.5 -12t25.5 -22q27 35 73 35zM231 129l13 -37h-26zM369 140h10q9 0 19 -3t10 -15q0 -11 -6 -18.5t-14 -11.5q-9 -5 -19 -7
v55zM634 92q0 21 12 36.5t28 15.5q18 0 30 -15.5t12 -36.5q0 -20 -12 -35t-30 -15q-16 0 -28 15t-12 35zM121 109l27 26q-6 8 -14 15q-8 6 -18.5 11t-24.5 5q-21 0 -35 -6.5t-22.5 -17.5t-12 -24.5t-3.5 -28.5q0 -26 26 -46.5t72 -20.5q6 0 12 0.5t13 1.5v35h-10
q0 1 -3.5 -7t-14.5 -8q-5 0 -14.5 1.5t-19 7.5t-16.5 17t-7 30q0 15 4.5 24t10.5 13.5t12.5 5.5t10.5 1q-3 0 0 0t8 -1.5t9.5 -6t4.5 -13.5q0 -2 -2 -8zM563 109l26 26q-6 8 -14 15q-8 6 -18.5 11t-24.5 5q-38 0 -55.5 -23t-17.5 -51q0 -27 25.5 -48.5t73.5 -21.5
q6 0 12 0.5t13 1.5v35h-9q0 1 -4.5 -7t-15.5 -8q-5 0 -14.5 1.5t-18.5 7.5t-16 17t-7 30q0 15 4.5 24t10.5 13.5t12.5 5.5t10.5 1q-3 0 0 0t8 -1.5t9.5 -6.5t4.5 -14q0 -3 -2 -7zM253 69l10 -25v-2q0 -9 -4 -9h-1v-9h51v10q-2 0 -3 1t-2 1.5t-1 2.5q-1 2 -8.5 20.5
t-16.5 41.5q-11 26 -24 59h-35l-43 -120q-2 -4 -4 -4.5l-6 -1.5v-10h42v10q-2 0 -4 1q-3 1 -3 7q3 3 6 14q2 5 4 13h42zM326 162v-8l4 -2q2 -1 4 -5v-108q0 -2 -2.5 -3.5t-3.5 -1.5v-10h50v10q-3 0 -5 1q-4 2 -4 5v22q20 5 37 13q14 7 26 18.5t12 28.5q0 24 -16 32t-29 8
h-73zM771 160v-10q1 0 4 -0.5t3 -5.5q0 -16 -3 -35t-6.5 -35.5t-7.5 -28t-6 -11.5h-1v-10h42v10q-2 0 -4 1q-3 1 -3 4q0 1 2 13.5t4 26.5l6 38l22 -62h25l23 62l12 -77q0 -6 -9 -6v-10h50v10q-1 0 -2 1l-1.5 1.5t-1.5 2.5q0 1 -2.5 17.5t-5.5 36.5q-4 23 -8 51q0 6 6 6v10
h-51l-19 -53l-16 53h-52zM598 92q0 -30 22.5 -51.5t53.5 -21.5q33 0 56 21.5t23 51.5q0 32 -23 53.5t-56 21.5q-31 0 -53.5 -21.5t-22.5 -53.5z" />
    <glyph glyph-name="acute" unicode="&#xb4;" 
d="M878 156q-17 -8 -36 -13.5t-33 -5.5q-40 0 -74 15.5t-59 41t-39 59t-14 69.5q0 40 14 74t39 59t59 39t74 14q14 0 33 -1.5t36 -10.5v-340zM809 537q-44 0 -83.5 -15.5t-69.5 -43.5t-47.5 -68t-17.5 -88q0 -45 17.5 -84t47.5 -68t69.5 -45.5t83.5 -16.5q14 0 33 5t36 5
v-110q-17 -5 -36 -6t-33 -1q-63 0 -118.5 20.5t-98.5 57t-71.5 86t-36.5 107.5q-11 -58 -40 -107.5t-72 -86t-96.5 -57t-112.5 -20.5q-21 0 -36.5 1t-29.5 6v110q14 0 29.5 -5t36.5 -5q45 0 84 16.5t68 45.5t45.5 68t16.5 84q0 48 -16.5 88t-45.5 68t-68 43.5t-84 15.5
q-21 0 -36.5 -1.5t-29.5 -11.5v120q14 7 29.5 8t36.5 1q59 0 112.5 -22.5t96.5 -60t72 -87.5t40 -104q8 54 36.5 104t71.5 87.5t98.5 60t118.5 22.5q14 0 33 -1t36 -8v-120q-17 10 -36 11.5t-33 1.5zM349 310q-4 -36 -19.5 -67.5t-40.5 -55t-57 -37t-69 -13.5
q-21 0 -36.5 5.5t-29.5 13.5v154h252zM97 338v158q14 9 29.5 10.5t36.5 1.5q37 0 68.5 -12.5t55.5 -35t40 -53.5t22 -69h-252z" />
    <glyph glyph-name="registered" unicode="&#xae;" 
d="M424 442v578h84v-578h-84zM570 1020q0 -5 -0.5 -13t-0.5 -18q0 -29 2.5 -72t8.5 -88.5t17.5 -88.5t30.5 -71q45 -66 94 -98t105 -41v-88q-37 3 -75.5 18t-73 38t-62.5 51t-43 58t-24.5 60.5t-15 75.5t-7 110.5t-1.5 166.5h45zM360 1020h47q0 -101 -1.5 -166.5
t-6.5 -110.5t-14.5 -75.5t-24.5 -60.5q-16 -30 -44 -58t-62.5 -51t-73 -38t-75.5 -18v88q56 9 105 41t94 98q19 28 30 71t17 88.5t7.5 88.5t1.5 72v31zM290 129h-41l-18 65h-78l-18 -65h-40l66 235q5 18 14 21.5t17 3.5t17.5 -3.5t14.5 -21.5zM580 129h-40l-18 65h-78
l-19 -65h-40l66 235q5 18 14.5 21.5t17.5 3.5t17 -3.5t14 -21.5zM640 338v-209h-40v221q0 39 40 39h42q12 0 24 -4.5t22.5 -14t17 -24t6.5 -33.5q0 -26 -8 -40t-17.5 -21.5t-17.5 -11.5t-8 -10q0 -2 4 -10l61 -91h-46l-60 90q-6 10 -6 21q0 14 9 19t20.5 10t20.5 13.5
t9 28.5q0 24 -12 31.5t-23 7.5h-26q-12 0 -12 -12zM410 389v-39h-55v-221h-39v221h-54v39h148zM787 129v260h39v-260h-39zM511 232l-28 99l-29 -99h57zM221 232l-29 99l-28 -99h57zM434 3v72h14l21 -61l21 61h14v-72h-10v61l-20 -61h-10l-20 61v-61h-10zM110 67q10 10 24 10
t21.5 -6.5t9.5 -17.5h-10q-3 15 -22 15q-8 0 -15.5 -7t-7.5 -23q0 -12 5 -20.5t19 -8.5q9 0 15 5t8 19h-23v8h32v-38h-6l-3 9q-8 -12 -25 -12q-15 0 -23.5 10.5t-8.5 27.5q0 18 10 29zM333 3h-11l-8 21h-28l-8 -21h-10l27 72h11zM770 26q13 -17 29 -17q19 0 19 12
q0 10 -16 13l-10 2q-20 3 -20 18q0 10 7 16.5t19 6.5q10 0 18.5 -5.5t8.5 -17.5h-9q-4 14 -18 14q-10 0 -14 -3.5t-4 -8.5t3.5 -7t15.5 -5l10 -2q18 -5 18 -19q0 -12 -9 -17.5t-20 -5.5q-28 0 -28 26zM613 3v72h53v-9h-44v-22h38v-8h-38v-25h44v-8h-53zM864 420q2 -2 2 -6
q0 -3 -2.5 -9.5t-13.5 -6.5q-4 0 -10 2l-4 6q-2 6 -2 8q0 8 5 12t11 4q10 0 14 -10zM862 407q2 4 2 7q0 5 -4 9.5t-10 4.5q-5 0 -9.5 -4t-4.5 -10q0 -2 1.5 -3.5t2.5 -3.5l3 -5q1 -2 3 -1.5t4 0.5q9 0 12 6zM311 32l-11 32l-11 -32h22zM858 404h-4l-3 7q-2 2 -4 2v-9h-3v20
h10q1 -1 1 -2.5t1 -1.5q0 -6 -4 -7q1 0 3 -3zM849 415q3 0 3.5 2t0.5 3h-6v-5h2z" />
    <glyph glyph-name="paragraph" unicode="&#xb6;" 
d="M226 576q18 10 38 14.5t40.5 7.5t40 7.5t36.5 15.5q21 14 35 33.5t23.5 42.5t16 48.5t14.5 52.5h223q-11 -24 -20 -50t-20 -49t-26.5 -42t-38.5 -31q-20 -10 -40.5 -15t-41.5 -9t-41.5 -9.5t-38.5 -16.5q-21 -12 -35.5 -33t-25.5 -46t-19.5 -51t-15.5 -49h-217
q11 24 21 49.5t22.5 49t29 44.5t40.5 36zM367 382q18 10 38 14.5t40.5 7.5t40 7.5t36.5 15.5q21 13 34.5 32.5t23 42.5t16.5 49l14 52h223q-10 -24 -19 -49.5t-20.5 -48.5t-26.5 -42t-38 -31q-20 -10 -41 -15t-42 -9t-41.5 -9.5t-38.5 -16.5q-21 -12 -36 -34t-26 -47.5
t-19 -51t-14 -46.5h-217q11 24 21 49t22 48.5t28.5 44.5t41.5 37zM414 117v-93l36 93h28l-47 -110h-42v88l-37 -89h-27l48 111h41zM554 117v-111h-28v22h-42l-14 -22h-28l77 111h35zM533 99h-3l-32 -50h31zM606 117h50l-12 -80l48 80h51l-40 -111h-31l35 92l-60 -92h-30
l9 95l-35 -95h-30zM753 6h-30l42 111h28zM835 117q8 0 14 -5t6 -13t-6 -13.5t-14 -5.5q-9 0 -15 5.5t-6 13.5t6 13t15 5zM835 84q5 0 10.5 4.5t5.5 10.5q0 5 -4 10t-12 5t-12.5 -5t-4.5 -10q0 -6 5 -10.5t12 -4.5zM841 99q2 -2 2.5 -6t1.5 -4h-5q-2 0 -1.5 4t-4.5 4h-3v-8
h-5v21h10q8 0 8 -9q-2 -2 -3 -2zM835 100q4 0 4 3t-1 3h-3h-4v-6h4zM185 117l-23 -49l57 49h40l-63 -52l8 -59h-36l-7 58l-30 -58h-31l55 111h30zM299 119q14 0 28 -9t14 -22v-4q-14 -48 -33.5 -64.5t-45.5 -16.5q-12 0 -27 5t-15 20q0 16 7 32t18.5 29t25.5 21t28 9z
M294 98q-6 0 -14 -6.5t-14.5 -16t-11 -20.5t-4.5 -20q0 -6 6 -9.5t11 -3.5q6 0 14 5.5t15 14.5t11.5 20t4.5 23q0 7 -5.5 10t-12.5 3z" />
    <glyph glyph-name="threequarters" unicode="&#xbe;" 
d="M813 0q-20 5 -28 14l-8 13l-2 8v60q0 14 12 29l13 8l14 3h107q9 -1 14.5 -4t13.5 -9l8 -14l3 -8v-63q-2 -8 -4 -12.5t-10 -12.5l-13 -9l-8 -3h-112zM357 0v135h191q8 -2 11.5 -4t11.5 -9l9 -15l2 -7v-100h-40v100h-52v-100h-41v100h-51v-100h-41zM218 0q-10 2 -16 4.5
t-13 9.5l-7 12l-3 9v7q1 7 3 13t10 14l13 9l9 2h88v20h-110v35h114q10 -2 15.5 -5.5t13.5 -10.5l6 -12q2 -6 2 -11v-96h-125zM633 0q-11 3 -14.5 5t-10.5 9l-9 14q-2 3 -2 8v59q0 8 3 14t9 14l15 9l7 2q5 1 6 1h124v-35h-123v-65h123v-35h-128zM0 0v135h126q13 -2 18.5 -5
t9.5 -8l7 -10q3 -5 3 -10v-102h-40v100h-83v-100h-41zM919 35v65h-104v-65h104zM302 35v20h-82v-20h82z" />
    <glyph glyph-name="cedilla" unicode="&#xb8;" 
d="M14 105q-1 2 -3 7t-2 7q-1 0 -1 3q0 1 -1 2v74q0 11 7.5 20.5t18 17t23 11.5t21.5 4h328l100 -91v89h209v-62h2l75 62h164v-2l-147 -122l143 -118q5 -3 5 -6h-164l-78 63v-63h-193l-96 87l-5 2v-89h-121v9q-5 -2 -13 -5.5t-15 -3.5h-264v104h7zM18 23q0 -4 4 -6.5t7 -2.5
h241q11 0 22.5 7.5t19.5 13.5v-21h98v105l117 -105h176v76h3l92 -76h125l-125 103q-2 2 -5 4t-3 5q0 1 1 2l131 108h-124l-95 -78v78h-185v-107l-117 107h-334q-7 0 -15.5 -4.5t-16 -11.5t-12.5 -15.5t-5 -15.5v-54q0 -13 9 -23t18 -17v-3h-27v-69zM235 81l2 2q1 1 1 1.5
t1 1.5q0 1 0.5 2t0.5 2q0 2 -3 5l-2 2q-1 1 -2 1h-165q-5 0 -11.5 3.5t-12 9t-9.5 12t-4 12.5v54q0 14 14.5 25t26.5 11h237v-55h-204q-2 0 -3.5 -3l-2.5 -5v-2q2 -2 3.5 -4t2.5 -2h161q14 0 28.5 -12.5t14.5 -26.5v-53q0 -11 -12.5 -23.5t-23.5 -12.5h-242v55h204zM396 225
l135 -123v123h72v-199h-73l-135 122v-122h-70v199h71zM690 225v-92l113 92h84v-3l-117 -97l115 -95q2 -2 2 -4h-86l-111 91v-91h-72v199h72z" />
    <glyph glyph-name="Agrave" unicode="&#xc0;" 
d="M156 38q0 23 7 41t17 39q-5 -5 -16.5 -16t-24.5 -23.5t-24.5 -24l-16.5 -16.5q-11 -11 -27.5 -24t-35.5 -13q0 4 1.5 6t3.5 5q13 16 27.5 35t27.5 39.5t21.5 42t8.5 42.5v14q-2 4 -4 7.5t-7 5.5h-10q-15 0 -31.5 -8.5t-30 -22t-22.5 -29.5t-9 -31q0 -5 3.5 -14t11.5 -9
q14 0 24.5 11t17.5 26t11 31t5 27l1 1q1 0 2 1l3 -3q1 -2 1 -3q2 -8 2 -13v-15q0 -27 -15 -49.5t-46 -22.5q-16 0 -22 9t-6 23q0 19 9.5 37.5t24.5 33t34 23.5t38 9q21 0 36.5 -15t15.5 -36q0 -17 -7 -32.5t-17 -29.5t-21.5 -27t-21.5 -23q38 30 72.5 72.5t61.5 81.5
q2 5 5.5 6.5t6.5 1.5v-9q-3 -7 -9.5 -25.5t-14 -39t-13.5 -39t-9 -25.5q0 -1 -1.5 -6t-1.5 -7v-2q1 3 5.5 10t9 14.5t9 14.5t6.5 10q3 4 10.5 14.5t17 21t19 19t14.5 8.5h1q0 -1 1 -1l1 -1v-2q-20 -18 -36.5 -36.5t-29.5 -41.5q-2 -5 -8.5 -16.5t-13.5 -24.5t-13 -25t-9 -17
q-1 -4 -7 -4q-4 0 -6.5 5t-4 12t-2 13.5t-0.5 8.5zM517 37q-12 -11 -21 -22.5t-27 -11.5q-11 0 -13.5 4.5t-2.5 15.5q0 9 1 15t5 16q-10 -8 -22.5 -23.5t-21.5 -24.5q-4 -3 -7.5 -3.5t-8.5 -0.5q-20 0 -20 19q0 11 3 19.5t6 19.5q-7 -6 -13.5 -15.5t-14 -19t-16 -16
t-19.5 -6.5q-8 0 -11.5 0.5t-8.5 6.5v10q0 11 3.5 21t8.5 20q-7 -5 -13.5 -15t-14.5 -19.5t-17 -16.5t-20 -7q-5 0 -9.5 1.5t-6.5 7.5v11q0 8 1.5 14.5t3.5 14.5q-1 -1 -4 -3.5t-4 -3.5h-2q-2 0 -4 0.5t-2 2.5q0 1 6 9.5t13.5 18t15 17t10.5 7.5h30q0 -5 -2 -8
q-1 -2 -5.5 -10t-9.5 -17t-9.5 -16.5t-5.5 -10.5q-2 -4 -6.5 -10.5t-4.5 -11.5v-2q0 -1 1 -2q2 1 3 2l23 23q4 4 12 14t16.5 21t16 21l10.5 14q1 1 6 9.5t11.5 19t13.5 21l11 16.5q5 8 7.5 13.5t5.5 9t8 5t15 1.5q1 0 3.5 -0.5t3.5 -0.5l3 -1v-2q0 -1 -1.5 -3t-1.5 -3
l-85 -157q-1 -2 -4.5 -10t-4.5 -13h4l15 16q3 3 12 14.5t20.5 25.5t22 27.5t15.5 20.5q3 4 10 15.5t14.5 23.5t14 23t8.5 16l6 6h26v-8l-85 -155q0 -1 -2 -6t-3 -7q-2 -4 -3 -7t-1 -5l2 -2q3 4 14 14.5t14 13.5q1 2 7.5 10t13 16.5t12.5 16t8 9.5q8 8 13.5 10t16.5 2h9
q2 -1 2 -5v-4l-39 -71q-2 -5 -1.5 -5t0.5 -5q5 0 10.5 6t8.5 10q1 1 6 7.5t11 13.5t11.5 13t6.5 8q11 11 25.5 22.5t30.5 11.5q9 0 17 -5.5t10 -5.5q3 0 6 4.5t10 4.5h6q1 -1 8 -1q3 0 5 -1v-8l-36 -68l-4 -12h2q13 9 23.5 22t20.5 24q9 12 20.5 28t28.5 16h7q2 -1 4 -3.5
t2 -5.5v-30q9 8 17.5 18.5t16.5 18.5q4 3 6.5 3.5t6.5 0.5q16 0 17.5 -14.5t0.5 -26.5l34 35q6 6 14 6q6 0 11 -3.5t7 -8.5v-10q0 -19 -9.5 -35.5t-17.5 -31.5v-7q1 1 3 2t3 2l14 14t10 11l69 88q2 2 8 2q0 -6 -3 -9.5t-3 -8.5v-2l16 -46q4 -10 2 -23l12 12h4v-7
q-2 -3 -5 -7q-6 -8 -8 -10q-8 -9 -19 -17t-25 -8q-12 0 -23 6t-11 20q0 6 4 11t11 5q5 0 8.5 -3.5t3.5 -8.5t-4.5 -7.5t-4.5 -6.5q0 -3 2 -5q15 11 21 30.5t6 36.5v17l-6 -6l-56 -70q-6 -8 -14 -13.5t-17 -5.5q-6 0 -11.5 2.5t-7.5 8.5v12q0 19 8.5 35t18.5 31v3
q-7 -2 -9 -5l-64 -85h-33v7l36 74v6q-3 -1 -6.5 -4t-5.5 -5q-2 -3 -8.5 -11.5t-13.5 -18t-13.5 -18t-8.5 -11.5q-2 -2 -6.5 -9t-5.5 -8q-3 -4 -8 -4l-28 2v3l41 80v4q-8 -7 -18.5 -21.5t-23 -29.5t-25 -26.5t-24.5 -11.5q-11 0 -14.5 6t-6.5 17q-7 -9 -16.5 -16t-20.5 -7
q-17 0 -21.5 11t-5.5 25zM542 15q0 -7 5 -7q7 0 16.5 9t18.5 21.5t15 25t6 19.5v7q-3 5 -6 5q-6 0 -15.5 -10.5t-18 -24t-15 -26.5t-6.5 -19zM294 149q0 9 6 14t14 5q5 0 7.5 -0.5t4.5 -5.5v-7q0 -20 -17 -20q-6 0 -10.5 3.5t-4.5 10.5zM514 141q0 1 -0.5 3.5t-0.5 4.5
q0 19 18 19q9 0 11 -3t2 -11q0 -19 -16 -19q-9 0 -14 6z" />
    <glyph glyph-name="questiondown" unicode="&#xbf;" 
d="M864 141q6 0 12 5.5t6 13.5q0 6 -6 12t-12 6q-8 0 -13.5 -6t-5.5 -12q0 -8 5.5 -13.5t13.5 -5.5zM842 160q0 20 22 20q8 0 14 -5.5t6 -14.5t-6 -15.5t-14 -6.5q-10 0 -16 6.5t-6 15.5zM864 160q5 0 5 5q0 3 -5 3h-6v-8h6zM858 148h-4v24h10q8 0 8 -7q0 -4 -1.5 -5
t-3.5 -3l8 -9h-6l-5 9h-6v-9zM504 90v-7q0 -8 -4.5 -11t-9.5 -3q-3 0 -8 3t-5 11v17h61q0 18 -14 29.5t-34 11.5t-34.5 -11.5t-14.5 -29.5q0 -17 14.5 -28.5t34.5 -11.5q18 0 30.5 8t17.5 22h-34zM477 111v16q5 5 13 5t11 -5q2 -5 2.5 -8.5t0.5 -7.5h-27zM607 138
q12 2 25.5 -5.5t13.5 -30.5v-39h-34v48q0 4 -3.5 8.5t-10.5 4.5q-6 0 -11 -4.5t-5 -8.5v-48h-33v72h33v-5q13 8 25 8zM339 138q4 1 10.5 0t12.5 -5.5t10.5 -12t4.5 -18.5v-39h-33v48q0 4 -3.5 8.5t-10.5 4.5t-11.5 -4.5t-4.5 -8.5v-48h-33v72h33v-5q11 8 25 8zM715 100v14
q0 8 -3.5 10.5t-7.5 2.5q-5 0 -8.5 -2.5t-3.5 -10.5v-27q0 -9 3.5 -12t8.5 -3q4 0 7.5 3t3.5 12v13zM715 172h34v-109h-34v4q-8 -5 -18.5 -5.5t-17.5 1.5q-1 1 -5 3.5t-8 7t-7.5 11.5t-3.5 17q0 14 12.5 26t30.5 10q11 0 17 -6v40zM809 141q-20 0 -34 -11.5t-14 -29.5
q0 -17 14 -28.5t34 -11.5t34.5 11.5t14.5 28.5q0 18 -14.5 29.5t-34.5 11.5zM820 100v-17q0 -14 -11 -14q-6 0 -10.5 3t-4.5 11v31q0 10 4.5 14t10.5 4q11 0 11 -18v-14zM231 172h32v-22h-32v22zM231 135h32v-72h-32v72zM396 163h33v-15h18v-13h-18v-72h-33v72h-19v13h19v15
zM95 172h33l48 -75v75h33v-109h-33l-48 78v-78h-33v109zM125 205q-43 0 -68.5 -26t-25.5 -63q0 -35 25.5 -60.5t68.5 -25.5h700q45 0 68.5 25.5t23.5 60.5q0 37 -23.5 63t-68.5 26h-700zM125 0q-29 0 -51.5 9.5t-39 25.5t-25 37t-8.5 44q0 24 8.5 45.5t25 38t39 26t51.5 9.5
h700q28 0 50.5 -9.5t38.5 -26t24.5 -38t8.5 -45.5q0 -23 -8.5 -44t-24.5 -37t-38.5 -25.5t-50.5 -9.5h-700z" />
    <glyph glyph-name="onehalf" unicode="&#xbd;" 
d="M131 113l-62 -62h-2q-3 0 -6 1q-17 8 -34.5 21.5t-17.5 35.5q0 15 8 25.5t19 20.5q13 12 33.5 20.5t42.5 13.5t44 7.5t39 2.5q11 0 21.5 -1t21.5 -1q3 0 3.5 0.5t2.5 3.5l45 55v-3l-15 -59l-1 -1q0 -2 2 -3q11 -4 24.5 -9t25.5 -13t20.5 -18.5t8.5 -25.5
q0 -23 -19.5 -39.5t-45.5 -27t-53 -16t-43 -5.5v4l27 97l-118 -137h-2zM387 174h40q0 -14 -0.5 -28t-0.5 -28v-6l34 62h41l-32 -110h-31l15 53l-28 -53h-25q0 12 0.5 23.5t0.5 22.5v10q0 -2 -1 -6t-1 -6q-1 -4 -3 -11t-4 -13.5t-3.5 -11.5t-2.5 -8h-31zM513 174h34l-32 -110
h-34zM559 174h51q11 0 19.5 -8t11.5 -18v-10q0 -22 -14 -44q-8 -13 -19.5 -19.5t-24.5 -8.5t-27.5 -2h-27.5v4zM651 174h35l-8 -57v-2q1 3 5 11t7.5 17t7 17t5.5 11q1 0 1 1q0 2 1 2h31l-8 -60l27 60h32l-55 -110h-32v11q0 1 1 8t2 15t1.5 15t0.5 9v1l-27 -59h-33zM811 174
h35q0 -4 0.5 -15t1 -23.5t1 -24t0.5 -15.5v-32h-33v14h-31l-7 -14h-33v3zM869 105l-16 69h37q1 -3 2.5 -14t2.5 -14v-2q0 -1 1 -2l2 2l22 30h40l-57 -69l-13 -41h-33zM243 77q9 2 23 7t26.5 12.5t21.5 17.5t9 22q0 8 -5.5 16t-13.5 14t-17 10t-16 4h-1l-27 -100v-3zM44 121
q0 -12 7.5 -20.5t18.5 -13.5q0 -1 2 -1q1 0 1 -1l107 99l3 2l1 1v-1l-21 -84l70 86l-1 1h-5q-2 0 -4.5 0.5t-3.5 0.5h-19q-21 0 -41.5 -2.5t-40.5 -8.5q-9 -2 -22 -7t-24.5 -12.5t-19.5 -17t-8 -21.5zM570 92q17 0 26.5 12t9.5 29q0 8 -5 11.5t-12 3.5h-4l-1 -3l-14 -50v-3z
M800 104h16q0 3 0.5 13.5t0.5 14.5v2z" />
    <glyph glyph-name="uni00B2" unicode="&#xb2;" 
d="M579 16l40 80q-7 -5 -13.5 -7.5t-15.5 -2.5h-10q-6 2 -8.5 7t-6.5 8q-8 -8 -19 -15t-24 -7q-12 0 -17 6t-13 13q-11 -9 -24 -16.5t-27 -7.5t-19.5 6.5t-13.5 13.5q-9 -8 -20 -14t-24 -6q-8 0 -12 1.5t-6.5 4.5t-5 6.5t-8.5 7.5q-9 -8 -17.5 -12t-19.5 -4q-16 0 -21.5 10
t-5.5 24q0 18 9.5 37t24.5 34t34 24.5t37 9.5q10 0 16.5 -2.5t6.5 -13.5q0 -16 -15 -16q-12 0 -14 6t-7 6q-10 0 -21 -9t-20 -22t-15 -27t-6 -24q0 -5 1.5 -8.5t7.5 -3.5q9 0 16 8t12 16q1 3 5.5 9.5t9 14t8.5 14.5t6 10q4 2 12 2h9.5t5.5 -6v-3q-5 -11 -11 -26t-11 -29
q-2 -4 -2 -7q1 -2 3.5 -2.5t4.5 -0.5q8 0 16.5 6t13.5 11q1 17 2 30t6 28q4 14 15.5 38.5t27 48t34.5 41t37 17.5q10 0 13.5 -6.5t3.5 -15.5q0 -21 -8.5 -41.5t-18.5 -37.5q-16 -29 -35 -52t-43 -46v-4q0 -8 5.5 -12.5t13.5 -4.5t16.5 5t13.5 12q5 47 26.5 84t55.5 69
q9 11 22 11q12 0 15 -11q0 -1 0.5 -4.5t0.5 -4.5q0 -28 -15 -56.5t-33 -48.5l-4.5 -4.5l-7.5 -7.5t-8 -7.5t-6 -5.5q-5 -5 -7.5 -6t-2.5 -7q0 -13 13 -13q12 0 20 10t13 19q1 1 3 5.5t4.5 9.5t5 9t2.5 5q1 3 5 9t8.5 13t8.5 13.5t6 8.5q2 4 5 4h20q2 0 2 -3v-6l-38 -69
q-2 -3 -3.5 -9t-1.5 -10q0 -6 5 -6q8 0 15 7.5t11 12.5q11 15 23.5 37t20.5 39l4 3h24q1 0 1 -4v-2l-95 -194q-6 -11 -15 -11q-12 0 -12 12v5zM9 119q0 15 4 29.5t10 27.5q16 33 40 62.5t54.5 51.5t66 35t73.5 13q15 0 31 -3t29 -10t21.5 -19t8.5 -30q0 -20 -11 -37t-30 -24
l-76 -25q1 0 2 -1q17 -13 25 -22.5t8 -29.5v-13q-7 -23 -28.5 -34.5t-43.5 -11.5q-12 0 -23 4.5t-11 18.5q0 8 3.5 13.5t11.5 5.5q12 0 14.5 -8.5t3.5 -17.5q17 3 30.5 15.5t13.5 30.5q0 8 -4 15t-9 13t-9 11.5t-4 10.5q0 8 7.5 13t12.5 7q3 1 10 5t15 7.5t15 7t10 4.5
q14 7 21.5 21t7.5 29q0 23 -17.5 31t-37.5 8q-31 0 -59.5 -13t-53.5 -33t-45.5 -45t-33.5 -50q-8 -16 -15 -33t-7 -36q0 -14 6 -28t24 -14q17 0 29 13.5t19 27.5l49 103q6 11 14 25t18.5 26t23 20t27.5 8h8q2 -1 2 -3q0 -3 -2 -4q-15 -11 -26.5 -22.5t-19.5 -28.5l-61 -128
q-11 -22 -31 -38.5t-45 -16.5q-29 0 -47.5 19t-18.5 47zM863 122q0 5 5 5h89v-22h-83q-2 0 -6.5 7t-4.5 10zM827 162q0 8 5 8h125v-23h-116zM582 259q-3 -4 -6 -7q-2 -3 -4.5 -5t-4.5 -4q-6 -7 -14 -18.5t-14.5 -24.5t-11.5 -26t-5 -23v-2q9 9 19.5 19t16.5 22l4 8t6.5 12.5
t6.5 13.5t5 10q6 12 6 25h-4zM523 302q-11 0 -25.5 -19.5t-27.5 -45t-22 -49.5t-9 -34v-3q23 21 39.5 50.5t30.5 57.5q5 9 9.5 20.5t4.5 22.5zM776 204q0 2 2 5t5 3h174v-22h-166q-2 2 -5 4t-8 7q-2 1 -2 3zM710 245q0 3 3 6.5t5 3.5h239v-22h-229q-3 1 -5 2q-3 1 -7 5
q-2 1 -3 2q-3 1 -3 3zM614 292q1 1 2 2.5t2 1.5h339v-21h-310q-5 2 -9 4t-8.5 3t-6.5 3q-1 1 -5 2.5t-4 4.5z" />
    <glyph glyph-name="uni00B5" unicode="&#xb5;" 
d="M440 194v-118l-255 -69q-20 -6 -39 -2.5t-34 13.5t-26 26t-15 36v110q0 14 6 28t20 26q-11 8 -17.5 17.5t-8.5 24.5v11v110q0 17 6 34t16.5 31t25.5 24t32 14l289 80v-118l-229 -61q-14 -5 -23.5 -18.5t-6.5 -30.5q3 -14 15.5 -23.5t26.5 -3.5l305 80q-9 6 -16.5 14.5
t-10.5 19.5q-3 20 7.5 38t30.5 23q20 6 35.5 -6t17.5 -32q6 -23 -11 -42l91 23v92l96 26v-91l175 46v-195l-91 -26v80l-641 -172q-14 -5 -23.5 -18.5t-6.5 -30.5q3 -14 15.5 -22t26.5 -5zM581 472q-3 14 -15.5 21.5t-26.5 1.5q-14 -3 -21.5 -15.5t-5.5 -26.5q3 -14 15 -21
t24 -2q14 3 22 15.5t8 26.5zM863 446q0 -6 -4 -10t-9.5 -5t-9.5 1.5t-4 9.5v42l-64 -16v-41q1 -10 5 -18q4 -7 12 -13t24 -8q8 -2 17 1.5t17 8.5q9 5 16 13v-87l65 15v171l-65 -19v-45zM516 400v-92l61 19v88zM448 381l-31 -34l-26 19l-58 -16l54 -34l-54 -53l39 11l30 31
l30 -16l58 16l-58 34l54 53zM684 419q-6 8 -15 13.5t-23 5.5q-17 -3 -31.5 -18t-14.5 -35q-3 -17 9 -29t29 -9q17 0 28.5 9.5t17.5 20.5v-23l68 19v179l-68 -19v-114zM227 129q-20 -5 -35.5 5t-18.5 30q-2 20 8 37.5t30 23.5l100 22v48l-39 -9l-83 -23q-23 -6 -42 -28.5
t-19 -48.5v-41q0 -3 0.5 -8t2.5 -8q1 -14 8.5 -25.5t18.5 -18t24 -8.5t26 3l106 26l115 31v46l-202 -54v0zM181 457q-23 -6 -38 -26t-15 -43v-57q0 -7 3 -11q3 -26 25 -39t48 -7l107 31v45l-88 -23q-17 -5 -32 5t-18 30q-5 20 6.5 37t28.5 20l221 61v46l-176 -50zM154 507
q-34 -9 -55 -39t-21 -64v-103v-15q3 -12 10.5 -23t16.5 -19q-11 -12 -19 -26.5t-8 -31.5v-80v-19q9 -37 41 -57t70 -11l240 65v45l-115 -30l-110 -31q-29 -5 -53.5 10t-30.5 44v19v45q0 26 16 49t45 31h4q-26 0 -42.5 15.5t-22.5 38.5v15v57q0 26 15.5 46.5t41.5 26.5l73 19
l179 49v46l-275 -72v0zM452 480q-6 20 6 37t32 20q17 6 30 0l4 -4l49 -26q-8 2 -16.5 4t-17.5 -1q-20 -5 -30.5 -23t-7.5 -38q3 -11 10.5 -19.5t16.5 -14.5l-305 -80q-14 -6 -26.5 3.5t-15.5 23.5v4v3h4h11l282 77q-11 2 -18.5 11t-7.5 23zM387 617l53 -27l-289 -80
q-17 -4 -32 -14t-25.5 -24t-16.5 -31t-6 -34v-110v-11q2 -15 8.5 -24.5t17.5 -17.5l-30 19l-27 11q-8 9 -12 18t-7 20v15v111q0 35 21 64.5t59 38.5zM71 80q5 -26 21 -43t39 -26q-18 0 -36 5t-32.5 14.5t-24.5 23t-13 30.5q0 2 -2 7t-2 8v91q3 17 9 31.5t18 25.5q1 1 3 4
q2 2 4.5 4t7.5 4l30 -19q-11 -9 -16.5 -22.5t-5.5 -27.5v-110v0zM852 385v-80l-54 30v34zM623 575l95 23l50 -27l-96 -26zM669 453l-50 -11l-38 -12q17 19 11 42v4l27 8zM943 526l-175 -46v42l125 34zM619 484v87l53 -30v-84z" />
    <glyph glyph-name="ordmasculine" unicode="&#xba;" 
d="M86 143v-143h48v143h76v36h-200v-36h76zM260 179l-98 -179h48l17 26h107l18 -26h46l-98 179h-40zM408 179v-179h47v179h-47zM546 143v-143h49v143h75v36h-199v-36h75zM279 127h3l29 -63h-62zM728 88q0 32 16.5 44.5t42.5 12.5q29 0 45 -13t16 -41q0 -33 -16 -45t-44 -12
q-27 0 -43.5 12t-16.5 42zM678 86q0 -46 30.5 -66t81.5 -20q54 0 82.5 22.5t28.5 67.5q0 42 -28.5 65t-82.5 23t-83 -23.5t-29 -66.5v-2zM440 285q-1 10 -3 24t-2 29q0 22 0.5 43t6 46.5t16.5 58.5t30 81q24 57 49.5 93.5t44.5 57.5q5 -10 267 -433h-409zM549 766
q-260 -193 -260 -481h-229l397 629zM955 943q0 -18 -9 -34t-25 -29t-35 -21.5t-40 -8.5q-18 0 -37.5 8.5t-35 21.5t-25 29t-9.5 34q0 17 9 34t24.5 30t35 21t38.5 8q21 0 40 -8.5t35 -21.5t25 -30t9 -33zM720 854q-59 -47 -90 -80.5t-48 -55.5q-2 4 -10.5 17t-22.5 31
q22 12 44.5 26.5t45.5 27.5t43.5 22t37.5 12z" />
    <glyph glyph-name="guillemotright" unicode="&#xbb;" 
d="M10 152v39h213v-39h-81v-152h-51v152h-81zM319 191l105 -191h-49l-20 28h-114l-18 -28h-51l105 191h42zM484 191v-191h-50v191h50zM502 152v39h212v-39h-80v-152h-53v152h-79zM265 68h66l-31 67h-3zM776 94q0 -32 17.5 -45t46.5 -13t46 13t17 48q0 29 -17 43.5t-48 14.5
q-28 0 -45 -13.5t-17 -47.5zM722 94q0 46 31.5 71t88.5 25t87.5 -24.5t30.5 -69.5q0 -48 -30.5 -72t-87.5 -24q-55 0 -87.5 21.5t-32.5 70.5v2z" />
    <glyph glyph-name="adieresis" unicode="&#xe4;" 
d="M240 600v120h120v120h360v-120h120v-120h120v-600h-240v240h-360v-240h-240v600h120zM360 360h360v240h-120v120h-120v-120h-120v-240zM120 1080h240v-120h-240v120zM720 1080h240v-120h-240v120z" />
    <glyph glyph-name="Udieresis" unicode="&#xdc;" 
d="M120 120v720h240v-720h360v720h240v-720h-120v-120h-600v120h-120zM120 1080h240v-120h-240v120zM720 1080h240v-120h-240v120z" />
    <glyph glyph-name="odieresis" unicode="&#xf6;" 
d="M120 120v600h120v120h600v-120h120v-600h-120v-120h-600v120h-120zM360 120h360v600h-360v-600zM120 1080h240v-120h-240v120zM720 1080h240v-120h-240v120z" />
    <glyph glyph-name="Adieresis" unicode="&#xc4;" 
d="M240 600v120h120v120h360v-120h120v-120h120v-600h-240v240h-360v-240h-240v600h120zM360 360h360v240h-120v120h-120v-120h-120v-240zM120 1080h240v-120h-240v120zM720 1080h240v-120h-240v120z" />
    <glyph glyph-name="udieresis" unicode="&#xfc;" 
d="M120 120v720h240v-720h360v720h240v-720h-120v-120h-600v120h-120zM120 1080h240v-120h-240v120zM720 1080h240v-120h-240v120z" />
    <glyph glyph-name="Odieresis" unicode="&#xd6;" 
d="M120 120v600h120v120h600v-120h120v-600h-120v-120h-600v120h-120zM360 120h360v600h-360v-600zM120 1080h240v-120h-240v120zM720 1080h240v-120h-240v120z" />
    <glyph glyph-name="Edieresis" unicode="&#xcb;" 
d="M960 840v-120h-600v-240h480v-120h-480v-240h600v-120h-840v840h840zM120 1080h240v-120h-240v120zM720 1080h240v-120h-240v120z" />
    <glyph glyph-name="edieresis" unicode="&#xeb;" 
d="M960 840v-120h-600v-240h480v-120h-480v-240h600v-120h-840v840h840zM120 1080h240v-120h-240v120zM720 1080h240v-120h-240v120z" />
    <glyph glyph-name="onequarter" unicode="&#xbc;" 
d="M84 143v-143h48v143h76v36h-200v-36h76zM408 179v-179h47v179h-47zM546 143v-143h49v143h75v36h-199v-36h75zM728 88q0 32 16.5 44.5t42.5 12.5q29 0 45 -13t16 -41q0 -33 -16 -45t-44 -12q-27 0 -43.5 12t-16.5 42zM678 86q0 -46 30.5 -66t81.5 -20q54 0 82.5 22.5
t28.5 67.5q0 42 -28.5 65t-82.5 23t-83 -23.5t-29 -66.5v-2zM266 0q0 3 -1 8t-1 10v14t2 15.5t6 20t10 28.5q9 19 17.5 31.5t14.5 19.5q2 -4 91 -147h-139zM303 163q-88 -65 -88 -163h-78l134 213zM466 221q0 -5 -3 -11t-8 -9.5t-11.5 -6t-12.5 -2.5q-7 0 -13 2.5t-11 6
t-8 9.5t-3 11q0 6 3 12t8 10t11 6.5t13 2.5q6 0 12.5 -3t11.5 -7t8 -9.5t3 -11.5zM376 197q-36 -19 -46.5 -30.5t-15.5 -19.5q-1 1 -3.5 5.5t-7.5 10.5q7 4 14.5 9t15 9.5t15 7.5t28.5 8z" />
  </font>
</defs>
</svg>
